<?xml version="1.0" encoding="UTF-8"?>
<!-- RegiSmart LLC logo - vector, scalable, transparent background -->
<svg xmlns="http://www.w3.org/2000/svg" viewBox="0 0 816.6 217.0">
<defs><linearGradient id="gBlue" x1="0" y1="0" x2="1" y2="1">
<stop offset="0" stop-color="#1b3f9c"/><stop offset="1" stop-color="#2f80d8"/></linearGradient></defs>
<g transform="translate(60.00,60.50) scale(1.3126)">
  <path d="M68.63,1.12 L78.88,1.28 L82.13,1.33 L83.86,1.42 L86.05,1.53 L99.42,1.79 L99.49,2.86 L99.61,8.32 L99.65,9.98 L99.75,14.33 L99.82,16.56 L99.98,22.33 L99.99,28.15 L100.0,31.11 L99.57,43.48 L98.5,43.29 L97.41,43.81 L97.26,43.96 L97.21,44.24 L97.28,44.96 L97.73,45.7 L97.82,46.64 L97.84,48.44 L97.77,48.68 L97.4,49.13 L96.38,49.97 L95.93,49.38 L95.0,49.01 L93.43,49.3 L93.15,49.14 L92.42,48.9 L91.94,48.91 L91.36,49.46 L90.63,49.83 L90.19,49.45 L89.74,50.1 L88.0,50.35 L84.77,50.16 L84.26,50.54 L83.98,51.03 L83.36,51.57 L82.21,51.55 L80.8,50.81 L80.16,50.3 L79.97,49.96 L79.63,49.86 L79.28,49.92 L78.74,50.43 L78.61,51.57 L78.15,52.1 L77.51,51.58 L76.98,51.48 L76.33,51.55 L76.21,51.9 L76.17,52.2 L75.64,52.68 L72.74,53.04 L72.23,52.99 L71.91,52.68 L71.52,52.88 L71.15,53.06 L71.18,53.59 L69.19,54.14 L68.57,53.01 L68.19,53.0 L65.82,52.96 L64.76,53.57 L64.08,53.51 L63.36,53.86 L63.0,54.25 L62.38,54.17 L62.24,53.87 L61.82,53.96 L61.62,54.07 L61.44,54.52 L60.92,54.9 L59.69,53.73 L59.04,53.46 L58.8,53.52 L58.28,53.66 L57.77,53.55 L57.29,53.43 L56.56,53.63 L56.06,53.77 L55.56,53.83 L54.97,53.64 L54.71,53.7 L54.48,53.77 L53.8,54.42 L53.77,54.77 L53.57,55.11 L53.36,55.26 L52.93,55.31 L52.65,55.32 L52.32,55.01 L52.38,54.66 L51.86,54.32 L51.33,54.62 L50.21,53.78 L48.58,53.93 L46.9,54.79 L46.48,54.48 L45.4,54.49 L45.07,55.1 L44.7,55.27 L43.66,55.46 L42.94,55.38 L42.66,55.23 L42.48,55.13 L42.55,54.75 L42.97,54.52 L43.02,54.27 L42.89,53.99 L42.54,53.24 L42.29,52.71 L41.84,52.75 L41.67,52.88 L41.64,53.46 L41.06,54.18 L40.86,54.36 L39.76,54.75 L39.54,54.82 L38.38,55.95 L38.25,56.08 L37.65,56.82 L37.36,57.33 L37.16,57.68 L36.85,58.01 L36.51,58.1 L36.38,57.89 L35.19,57.72 L34.93,57.68 L34.71,57.8 L34.48,57.92 L33.54,58.71 L32.84,59.47 L32.16,60.23 L31.97,60.53 L31.85,61.15 L31.96,61.56 L31.82,61.76 L30.83,62.04 L29.07,61.23 L28.77,61.09 L28.74,60.79 L28.37,60.67 L27.09,61.26 L25.77,62.33 L25.42,62.23 L24.75,63.44 L24.01,64.05 L22.75,63.34 L22.26,63.49 L21.46,64.13 L20.49,64.57 L18.34,64.98 L17.31,66.1 L16.9,66.2 L16.2,67.09 L15.1,68.23 L14.31,68.2 L13.39,68.6 L12.92,69.65 L12.09,68.81 L10.88,69.46 L10.89,70.1 L10.58,70.8 L10.26,71.0 L10.14,70.62 L10.19,70.15 L10.06,69.95 L9.09,70.45 L8.55,70.97 L8.26,71.38 L8.14,72.02 L7.42,72.06 L7.37,71.4 L6.81,71.03 L6.39,71.09 L4.35,71.98 L3.95,72.45 L3.63,73.14 L3.77,71.32 L2.96,70.06 L2.47,69.25 L2.09,68.64 L1.73,68.05 L0.0,65.21 L4.55,62.4 L4.93,62.17 L5.85,61.61 L11.0,58.49 L11.26,58.33 L12.64,57.51 L9.12,51.83 L9.44,46.95 L9.5,46.24 L9.81,42.31 L9.84,41.82 L9.89,41.11 L9.9,40.84 L9.98,39.42 L10.0,39.16 L10.2,35.9 L10.64,29.77 L10.85,26.32 L11.23,19.99 L11.49,15.52 L12.41,0.0 L22.36,0.18 L25.62,0.32 L30.98,0.53 L34.8,0.67 L37.09,0.71 L44.57,0.82 L47.16,0.9 L47.0,3.58 L49.16,3.26 L49.58,3.21 L49.61,2.88 L50.02,1.98 L50.14,0.92 L52.29,0.9 L53.23,0.88 L62.87,1.03 L68.63,1.12 Z" fill="url(#gBlue)"/>
  <circle cx="16.4" cy="40.34" r="3.6" fill="#fff"/><circle cx="16.4" cy="40.34" r="2.5" fill="#ff8a3d"/>
</g>
<g transform="translate(223.26,130.00) scale(0.09929,-0.09929)"><path d="M420 0 274 265H233V0H62V702H349Q432 702 490.5 673.0Q549 644 578.0 593.5Q607 543 607 481Q607 411 567.5 356.0Q528 301 451 278L613 0ZM233 386H339Q386 386 409.5 409.0Q433 432 433 474Q433 514 409.5 537.0Q386 560 339 560H233ZM1237 238H850Q854 186 883.5 158.5Q913 131 956 131Q1020 131 1045 185H1227Q1213 130 1176.5 86.0Q1140 42 1085.0 17.0Q1030 -8 962 -8Q880 -8 816.0 27.0Q752 62 716.0 127.0Q680 192 680 279Q680 366 715.5 431.0Q751 496 815.0 531.0Q879 566 962 566Q1043 566 1106.0 532.0Q1169 498 1204.5 435.0Q1240 372 1240 288Q1240 264 1237 238ZM1065 333Q1065 377 1035.0 403.0Q1005 429 960 429Q917 429 887.5 404.0Q858 379 851 333ZM1714 479V558H1885V1Q1885 -76 1854.5 -138.5Q1824 -201 1761.5 -238.0Q1699 -275 1606 -275Q1482 -275 1405.0 -216.5Q1328 -158 1317 -58H1486Q1494 -90 1524.0 -108.5Q1554 -127 1598 -127Q1651 -127 1682.5 -96.5Q1714 -66 1714 1V80Q1689 41 1645.0 16.5Q1601 -8 1542 -8Q1473 -8 1417.0 27.5Q1361 63 1328.5 128.5Q1296 194 1296 280Q1296 366 1328.5 431.0Q1361 496 1417.0 531.0Q1473 566 1542 566Q1601 566 1645.5 542.0Q1690 518 1714 479ZM1592 417Q1541 417 1505.5 380.5Q1470 344 1470 280Q1470 216 1505.5 178.5Q1541 141 1592 141Q1643 141 1678.5 178.0Q1714 215 1714 279Q1714 343 1678.5 380.0Q1643 417 1592 417ZM1993 708Q1993 748 2021.5 774.5Q2050 801 2095 801Q2139 801 2167.5 774.5Q2196 748 2196 708Q2196 669 2167.5 642.5Q2139 616 2095 616Q2050 616 2021.5 642.5Q1993 669 1993 708ZM2180 558V0H2009V558Z" fill="#1b3f9c"/></g>
<g transform="translate(445.87,130.00) scale(0.09929,-0.09929)"><path d="M32 183H201Q204 154 228.0 136.0Q252 118 287 118Q319 118 336.5 130.5Q354 143 354 163Q354 187 329.0 198.5Q304 210 248 224Q188 238 148.0 253.5Q108 269 79.0 302.5Q50 336 50 393Q50 441 76.5 480.5Q103 520 154.5 543.0Q206 566 277 566Q382 566 442.5 514.0Q503 462 512 376H354Q350 405 328.5 422.0Q307 439 272 439Q242 439 226.0 427.5Q210 416 210 396Q210 372 235.5 360.0Q261 348 315 336Q377 320 416.0 304.5Q455 289 484.5 254.5Q514 220 515 162Q515 113 487.5 74.5Q460 36 408.5 14.0Q357 -8 289 -8Q216 -8 159.0 17.0Q102 42 69.0 85.5Q36 129 32 183ZM1559 326V0H1389V303Q1389 357 1360.5 386.5Q1332 416 1282 416Q1232 416 1203.5 386.5Q1175 357 1175 303V0H1005V303Q1005 357 976.5 386.5Q948 416 898 416Q848 416 819.5 386.5Q791 357 791 303V0H620V558H791V488Q817 523 859.0 543.5Q901 564 954 564Q1017 564 1066.5 537.0Q1116 510 1144 460Q1173 506 1223.0 535.0Q1273 564 1332 564Q1436 564 1497.5 501.0Q1559 438 1559 326ZM1891 566Q1950 566 1994.5 542.0Q2039 518 2063 479V558H2234V0H2063V79Q2038 40 1993.5 16.0Q1949 -8 1890 -8Q1822 -8 1766.0 27.5Q1710 63 1677.5 128.5Q1645 194 1645 280Q1645 366 1677.5 431.0Q1710 496 1766.0 531.0Q1822 566 1891 566ZM1941 417Q1890 417 1854.5 380.5Q1819 344 1819 280Q1819 216 1854.5 178.5Q1890 141 1941 141Q1992 141 2027.5 178.0Q2063 215 2063 279Q2063 343 2027.5 380.0Q1992 417 1941 417ZM2704 564V383H2657Q2593 383 2561.0 355.5Q2529 328 2529 259V0H2358V558H2529V465Q2559 511 2604.0 537.5Q2649 564 2704 564ZM3097 145V0H3010Q2917 0 2865.0 45.5Q2813 91 2813 194V416H2745V558H2813V694H2984V558H3096V416H2984V192Q2984 167 2996.0 156.0Q3008 145 3036 145Z" fill="#2f80d8"/></g>
<g transform="translate(227.92,157.00) scale(0.02411,-0.02411)"><path d="M233 132H457V0H62V702H233ZM850 132H1074V0H679V702H850ZM1620 710Q1745 710 1834.0 644.0Q1923 578 1953 464H1765Q1744 508 1705.5 531.0Q1667 554 1618 554Q1539 554 1490.0 499.0Q1441 444 1441 352Q1441 260 1490.0 205.0Q1539 150 1618 150Q1667 150 1705.5 173.0Q1744 196 1765 240H1953Q1923 126 1834.0 60.5Q1745 -5 1620 -5Q1518 -5 1437.5 40.5Q1357 86 1312.0 167.0Q1267 248 1267 352Q1267 456 1312.0 537.5Q1357 619 1437.5 664.5Q1518 710 1620 710Z" fill="#5a6b8c"/></g>
</svg>